<?xml version="1.0" standalone="no"?>
<!DOCTYPE svg PUBLIC "-//W3C//DTD SVG 20010904//EN"
 "http://www.w3.org/TR/2001/REC-SVG-20010904/DTD/svg10.dtd">
<svg version="1.0" xmlns="http://www.w3.org/2000/svg"
 width="512.000000pt" height="512.000000pt" viewBox="0 0 512.000000 512.000000"
 preserveAspectRatio="xMidYMid meet">

<g transform="translate(0.000000,512.000000) scale(0.100000,-0.100000)"
fill="#000000" stroke="none">
<path d="M2452 5105 c-67 -19 -15 10 -611 -334 l-513 -296 63 -12 c205 -41
469 -173 772 -385 80 -56 127 -96 127 -107 0 -23 -19 -41 -45 -41 -12 0 -105
56 -207 124 -195 129 -416 246 -553 292 -111 38 -255 45 -303 14 -112 -70 -89
-267 65 -574 48 -96 146 -262 167 -284 10 -11 30 -10 110 4 102 17 126 12 126
-26 0 -29 -32 -48 -102 -60 -38 -7 -68 -14 -68 -17 0 -6 63 -94 96 -136 l23
-27 36 72 c172 343 501 557 885 575 300 14 577 -99 789 -323 78 -81 147 -181
188 -270 l25 -55 48 64 c53 71 176 255 211 316 l22 39 38 -20 c22 -11 39 -22
39 -25 0 -3 -18 -35 -40 -70 -23 -35 -38 -68 -35 -72 3 -5 24 -12 48 -16 150
-26 436 -128 558 -199 236 -139 289 -316 138 -467 -153 -153 -515 -286 -981
-359 -71 -12 -78 -15 -89 -43 -38 -92 -174 -261 -268 -332 -37 -29 -57 -54
-80 -104 -16 -36 -33 -82 -36 -102 l-7 -36 88 -56 88 -56 26 24 c36 35 95 56
155 56 125 0 219 -88 232 -217 l6 -53 49 -10 c119 -26 221 -2 255 61 13 25 18
53 17 113 -2 137 -88 354 -243 610 -54 89 -59 102 -47 120 26 40 57 25 108
-50 68 -101 200 -366 231 -465 93 -297 25 -469 -191 -487 -42 -3 -94 1 -140
11 l-73 15 -30 -34 c-44 -49 -110 -78 -179 -78 -69 1 -122 26 -172 81 -46 51
-62 100 -55 171 l5 57 -70 43 c-47 29 -73 40 -77 32 -4 -6 -15 -69 -24 -141
-9 -71 -24 -149 -32 -172 -10 -30 -11 -44 -3 -47 23 -8 48 -42 48 -65 0 -25
-41 -66 -66 -66 -9 0 -14 -12 -14 -34 0 -25 8 -43 31 -65 35 -35 33 -63 -7
-96 -31 -26 -31 -64 0 -90 13 -11 27 -29 30 -41 8 -26 -28 -74 -55 -74 -10 0
-37 -18 -58 -39 -24 -24 -57 -44 -82 -51 -23 -6 -54 -20 -68 -30 -37 -27 -102
-40 -211 -40 -109 0 -174 13 -211 40 -14 10 -45 24 -68 30 -25 7 -58 27 -82
51 -21 21 -48 39 -58 39 -27 0 -63 48 -55 74 3 12 17 30 30 41 31 26 31 64 0
90 -40 33 -42 61 -7 96 23 22 31 40 31 65 0 22 -5 34 -14 34 -25 0 -66 41 -66
66 0 23 25 57 48 65 6 3 4 29 -8 74 -10 39 -24 121 -31 182 -7 62 -17 113 -22
113 -5 0 -48 -24 -97 -54 -338 -210 -652 -301 -792 -230 -174 87 -178 307 -12
654 63 132 166 309 194 335 23 20 48 17 66 -10 12 -18 7 -31 -47 -120 -155
-256 -241 -473 -243 -610 -1 -102 17 -138 82 -167 63 -28 166 -21 292 22 172
57 540 261 540 299 0 25 -35 125 -56 161 -10 16 -48 54 -85 84 -80 66 -176
183 -227 276 l-37 68 -105 17 c-443 72 -790 200 -944 349 -134 131 -117 289
44 412 45 34 48 39 53 93 11 121 88 206 204 226 62 10 141 -16 189 -62 l39
-38 102 26 c57 14 105 28 108 31 3 2 -18 43 -46 89 -167 276 -262 549 -242
695 3 27 2 45 -3 42 -5 -3 -130 -74 -278 -159 -311 -178 -358 -216 -413 -327
l-38 -76 0 -1176 0 -1176 38 -76 c26 -53 54 -91 91 -125 37 -33 342 -215 997
-592 519 -300 967 -554 994 -565 71 -28 220 -27 292 1 28 11 476 265 994 564
657 379 958 559 996 592 36 34 64 72 90 125 l38 76 0 1176 0 1176 -38 76 c-54
111 -102 149 -412 328 -148 85 -272 156 -275 158 -4 1 -7 -37 -7 -85 0 -48 -6
-107 -12 -130 l-11 -41 -40 16 c-33 14 -40 21 -35 37 3 11 8 50 12 86 7 82
-18 148 -69 179 -42 25 -152 27 -242 4 -159 -41 -405 -167 -659 -340 -135 -92
-170 -107 -195 -82 -26 26 -11 48 86 115 328 230 591 363 801 406 l64 13 -517
298 c-284 164 -540 307 -569 318 -69 26 -186 32 -255 13z"/>
<path d="M3726 3369 c-10 -16 -51 -75 -92 -130 l-75 -101 17 -95 c22 -123 15
-334 -15 -443 -11 -41 -18 -76 -16 -79 8 -7 204 30 360 69 274 69 469 155 567
250 97 95 97 165 -1 261 -95 93 -318 189 -586 253 -60 15 -117 30 -126 35 -12
7 -20 2 -33 -20z"/>
<path d="M1295 3370 c-163 -40 -155 -36 -155 -83 0 -64 -16 -109 -57 -157 -47
-55 -102 -79 -176 -80 -70 0 -112 16 -166 65 l-41 38 -54 -54 c-95 -95 -94
-165 2 -259 98 -95 293 -181 567 -250 160 -40 352 -76 360 -68 3 2 -4 40 -16
84 -30 116 -37 303 -14 431 l18 101 -60 78 c-33 44 -74 100 -92 127 -17 26
-35 47 -39 46 -4 -1 -38 -9 -77 -19z"/>
</g>
</svg>
